<?xml version="1.0" standalone="no"?><!DOCTYPE svg PUBLIC "-//W3C//DTD SVG 1.1//EN" "http://www.w3.org/Graphics/SVG/1.1/DTD/svg11.dtd"><svg t="1601169561139" class="icon" viewBox="0 0 1024 1024" version="1.1" xmlns="http://www.w3.org/2000/svg" p-id="15134" xmlns:xlink="http://www.w3.org/1999/xlink" width="200" height="200"><defs><style type="text/css"></style></defs><path d="M100.824615 116.578462C78.769231 149.661538 66.166154 184.32 60.652308 218.190769c-6.301538 38.596923-2.363077 77.193846 11.027692 110.276923 13.390769 33.083077 35.446154 62.227692 65.378462 82.707693 22.055385 15.753846 48.836923 25.993846 79.556923 31.507692 4.726154 0 9.452308 0.787692 15.753846 0.787692 58.289231 3.150769 170.929231 8.664615 210.313846-0.787692 6.301538-29.144615 4.726154-103.975385 3.938461-152.812308-0.787692-15.753846-0.787692-29.144615-0.787692-34.658461 0-33.083077-5.513846-64.590769-18.116923-92.16-11.815385-25.993846-28.356923-48.836923-52.775385-69.316923-39.384615-33.083077-92.947692-47.261538-144.147692-42.535385-49.624615 3.938462-97.673846 25.993846-129.969231 65.378462zM27.569231 212.676923c6.301538-39.384615 21.267692-78.769231 45.686154-115.790769v-0.787692l0.787692-0.787693c38.596923-47.261538 95.310769-73.255385 153.6-78.769231 59.076923-4.726154 121.304615 11.815385 167.778461 50.412308 28.356923 23.630769 48.836923 51.2 62.227693 81.92 14.178462 32.295385 20.48 68.529231 20.48 106.338462 0 11.027692 0 22.055385 0.787692 33.870769 0.787692 55.926154 3.150769 144.935385-7.876923 173.292308l-2.363077 6.301538-6.301538 2.363077c-37.021538 15.753846-166.990769 8.664615-231.581539 5.513846-5.513846 0-11.027692-0.787692-15.753846-0.787692h-1.575385c-36.233846-5.513846-67.741538-18.116923-94.523077-36.233846-36.233846-24.418462-62.227692-59.076923-77.981538-98.461539S20.48 257.575385 27.569231 212.676923zM93.735385 898.756923c51.2 51.987692 103.975385 75.618462 152.812307 77.981539 23.630769 0.787692 46.473846-3.150769 67.741539-11.815385 21.267692-8.664615 40.96-22.055385 58.289231-39.384615 41.747692-41.747692 69.316923-106.338462 72.467692-184.32V701.046154c0-40.96 0.787692-73.255385-3.150769-119.729231-0.787692-0.787692-2.363077-0.787692-3.15077-0.787692H270.178462c-48.836923 0-92.16 13.390769-126.818462 36.233846-27.569231 18.116923-48.836923 41.747692-63.803077 69.316923s-22.843077 58.289231-22.843077 91.372308c-0.787692 38.596923 11.027692 80.344615 37.021539 121.304615z m151.236923 111.064615c-56.713846-2.363077-117.366154-29.932308-175.655385-89.00923l-0.787692-0.787693-0.787693-1.575384c-30.72-47.261538-44.110769-95.310769-44.110769-141.784616 0-38.596923 9.452308-75.618462 27.569231-107.913846 17.329231-32.295385 43.323077-59.864615 74.830769-81.132307 39.384615-25.993846 89.009231-41.747692 144.935385-41.747693h169.353846c14.178462 0 18.904615 3.938462 26.781538 11.027693 1.575385 0.787692 3.150769 2.363077 3.15077 2.363076l5.513846 4.726154 0.787692 7.089231c3.938462 51.2 3.938462 85.070769 3.150769 129.969231V742.006154c-3.938462 87.433846-35.446154 159.901538-82.707692 207.163077-20.48 20.48-44.110769 36.233846-69.316923 47.261538-25.993846 10.24-53.563077 14.966154-82.707692 13.390769zM578.953846 581.316923c-3.150769 25.206154-2.363077 106.338462-1.575384 154.387692 0 15.753846 0.787692 29.144615 0.787692 31.507693 4.726154 71.68 35.446154 128.393846 78.769231 163.84 19.692308 16.541538 40.96 28.356923 64.590769 36.233846 22.843077 7.876923 46.473846 11.027692 70.892308 9.452308 46.473846-2.363077 91.372308-23.630769 125.243076-65.378462 31.507692-38.596923 47.261538-78.769231 48.836924-119.729231 2.363077-43.323077-11.027692-87.433846-37.021539-131.544615-66.953846-85.070769-177.230769-82.707692-280.418461-80.344616-21.267692 0.787692-41.747692 0.787692-61.44 0.787693-4.726154-0.787692-7.089231 0-8.664616 0.787692z m-34.658461 154.387692c-0.787692-55.138462-2.363077-152.812308 4.726153-171.716923l2.363077-7.08923 6.301539-2.363077c2.363077-0.787692 3.938462-1.575385 5.513846-2.363077 7.089231-3.938462 11.027692-5.513846 23.630769-5.513846 19.692308 0 40.172308 0 61.44-0.787693 111.064615-2.363077 230.793846-4.726154 307.2 94.523077l0.787693 0.787692 0.787692 0.787693c29.932308 50.412308 44.898462 101.612308 42.535384 151.236923-2.363077 48.049231-20.48 95.310769-56.713846 139.421538-40.172308 49.624615-93.735385 74.043077-148.873846 77.193846-27.569231 1.575385-55.926154-2.363077-82.707692-11.027692-26.781538-9.452308-51.987692-22.843077-74.830769-41.747692-49.624615-41.747692-85.858462-106.338462-90.584616-189.046154v-0.787692c-0.787692-11.027692-1.575385-20.48-1.575384-31.507693z" fill="#2c2c2c" p-id="15135"></path><path d="M564.775385 256v187.470769c0 9.452308 2.363077 8.664615 6.301538 16.541539 64.590769 4.726154 100.824615 3.150769 166.990769 3.150769 107.913846 0 222.916923-48.836923 243.396923-168.566154 13.390769-78.769231-9.452308-160.689231-73.255384-213.464615C726.252308-38.596923 586.830769 66.953846 564.775385 256z" fill="#2c2c2c" p-id="15136"></path><path d="M581.316923 256.787692v186.683077c45.686154 3.150769 76.406154 3.150769 116.578462 2.363077h40.172307c55.138462 0 112.64-13.390769 155.963077-43.323077 35.446154-25.206154 62.227692-60.652308 70.892308-110.276923 6.301538-37.809231 3.938462-77.193846-8.664615-111.852308-11.027692-33.083077-30.72-62.227692-58.289231-85.858461-40.96-27.569231-80.344615-41.747692-115.790769-46.473846-33.083077-3.938462-63.803077 1.575385-89.796924 14.966154s-48.836923 34.658462-66.953846 63.015384c-22.843077 34.658462-37.809231 78.769231-44.110769 130.756923z m-33.083077 186.683077V254.424615c6.301538-56.713846 23.630769-107.126154 48.836923-146.510769C618.338462 74.830769 645.907692 48.836923 677.415385 33.083077s68.529231-22.843077 108.701538-18.116923c40.172308 4.726154 84.283077 21.267692 129.969231 51.987692h0.787692l0.787692 0.787692c33.870769 27.569231 56.713846 62.227692 70.104616 100.824616 14.178462 40.96 17.329231 85.070769 10.24 128.393846-10.24 59.864615-41.747692 103.187692-85.070769 133.12-49.624615 33.870769-113.427692 49.624615-174.867693 49.624615h-39.384615c-44.898462 0.787692-78.769231 0.787692-129.181539-3.150769l-8.664615-0.787692-4.726154-7.876923c-0.787692-0.787692-1.575385-2.363077-2.363077-3.150769-3.938462-6.301538-5.513846-9.452308-5.513846-21.267693z" fill="#2c2c2c" p-id="15137"></path></svg>